{
  "accessors": [
    {
      "bufferView": 2,
      "componentType": 5126,
      "count": 65532,
      "max": [
        9.0951700210571289,
        7.1625299453735352,
        28.825450897216797
      ],
      "min": [
        -9.5224199295043945,
        -7.6259899139404297,
        -0.094120003283023834
      ],
      "type": "VEC3"
    },
    {
      "bufferView": 2,
      "byteOffset": 786384,
      "componentType": 5126,
      "count": 65532,
      "max": [
        0.99999922513961792,
        0.99999970197677612,
        0.99999552965164185
      ],
      "min": [
        -0.99999994039535522,
        -0.99999982118606567,
        -0.99999994039535522
      ],
      "type": "VEC3"
    },
    {
      "bufferView": 3,
      "componentType": 5126,
      "count": 65532,
      "max": [
        0.99999970197677612,
        0.99765610694885254,
        1,
        1
      ],
      "min": [
        -0.99999946355819702,
        -0.99993753433227539,
        -1,
        -1
      ],
      "type": "VEC4"
    },
    {
      "bufferView": 1,
      "componentType": 5126,
      "count": 65532,
      "max": [
        0.99965000152587891,
        0.77767002582550049
      ],
      "min": [
        0.00014000000373926014,
        0.0002899999963119626
      ],
      "type": "VEC2"
    },
    {
      "bufferView": 0,
      "componentType": 5125,
      "count": 308886,
      "max": [
        65531
      ],
      "min": [
        0
      ],
      "type": "SCALAR"
    },
    {
      "bufferView": 2,
      "byteOffset": 1572768,
      "componentType": 5126,
      "count": 65532,
      "max": [
        9.1787700653076172,
        7.6862201690673828,
        32.839828491210938
      ],
      "min": [
        -6.4429998397827148,
        -7.6259899139404297,
        -0.037300001829862595
      ],
      "type": "VEC3"
    },
    {
      "bufferView": 2,
      "byteOffset": 2359152,
      "componentType": 5126,
      "count": 65532,
      "max": [
        0.99999982118606567,
        0.99999946355819702,
        0.99999982118606567
      ],
      "min": [
        -0.99999827146530151,
        -0.99999994039535522,
        -0.99999910593032837
      ],
      "type": "VEC3"
    },
    {
      "bufferView": 3,
      "byteOffset": 1048512,
      "componentType": 5126,
      "count": 65532,
      "max": [
        0.9999997615814209,
        0.99495089054107666,
        1,
        1
      ],
      "min": [
        -0.99999737739562988,
        -0.9994436502456665,
        -0.99999994039535522,
        -1
      ],
      "type": "VEC4"
    },
    {
      "bufferView": 1,
      "byteOffset": 524256,
      "componentType": 5126,
      "count": 65532,
      "max": [
        0.99980002641677856,
        0.795989990234375
      ],
      "min": [
        0.00014000000373926014,
        0.00018000000272877514
      ],
      "type": "VEC2"
    },
    {
      "bufferView": 0,
      "byteOffset": 1235544,
      "componentType": 5125,
      "count": 290025,
      "max": [
        65531
      ],
      "min": [
        0
      ],
      "type": "SCALAR"
    },
    {
      "bufferView": 2,
      "byteOffset": 3145536,
      "componentType": 5126,
      "count": 40637,
      "max": [
        9.0951700210571289,
        4.3110799789428711,
        32.839088439941406
      ],
      "min": [
        -5.9510498046875,
        -7.4056501388549805,
        2.9999999242136255e-05
      ],
      "type": "VEC3"
    },
    {
      "bufferView": 2,
      "byteOffset": 3633180,
      "componentType": 5126,
      "count": 40637,
      "max": [
        0.99999576807022095,
        0.99999791383743286,
        0.99999469518661499
      ],
      "min": [
        -0.99999016523361206,
        -1,
        -0.9999505877494812
      ],
      "type": "VEC3"
    },
    {
      "bufferView": 3,
      "byteOffset": 2097024,
      "componentType": 5126,
      "count": 40637,
      "max": [
        1,
        0.99664115905761719,
        0.99999958276748657,
        1
      ],
      "min": [
        -0.99998664855957031,
        -0.99266678094863892,
        -1,
        -1
      ],
      "type": "VEC4"
    },
    {
      "bufferView": 1,
      "byteOffset": 1048512,
      "componentType": 5126,
      "count": 40637,
      "max": [
        0.99966001510620117,
        0.77140998840332031
      ],
      "min": [
        0.0011399999493733048,
        0.00050999998347833753
      ],
      "type": "VEC2"
    },
    {
      "bufferView": 0,
      "byteOffset": 2395644,
      "componentType": 5125,
      "count": 151122,
      "max": [
        40636
      ],
      "min": [
        0
      ],
      "type": "SCALAR"
    }
  ],
  "asset": {
    "extras": {
      "author": "misterdevious (https://sketchfab.com/misterdevious)",
      "license": "CC-BY-NC-SA-4.0 (http://creativecommons.org/licenses/by-nc-sa/4.0/)",
      "source": "https://sketchfab.com/models/124b205a64dd4b49b2984feb752f9abc",
      "title": "Cemetery Angel - Scottino"
    },
    "generator": "Sketchfab-3.18.7",
    "version": "2.0"
  },
  "bufferViews": [
    {
      "buffer": 0,
      "byteLength": 3000132,
      "byteOffset": 0,
      "name": "floatBufferViews",
      "target": 34963
    },
    {
      "buffer": 0,
      "byteLength": 1373608,
      "byteOffset": 3000132,
      "byteStride": 8,
      "name": "floatBufferViews",
      "target": 34962
    },
    {
      "buffer": 0,
      "byteLength": 4120824,
      "byteOffset": 4373740,
      "byteStride": 12,
      "name": "floatBufferViews",
      "target": 34962
    },
    {
      "buffer": 0,
      "byteLength": 2747216,
      "byteOffset": 8494564,
      "byteStride": 16,
      "name": "floatBufferViews",
      "target": 34962
    }
  ],
  "buffers": [
    {
      "byteLength": 11241780,
      "uri": "scene.bin"
    }
  ],
  "images": [
    {
      "uri": "textures/Scottino.250Ktri.4Ktex_Material_u1_v1_baseColor.jpeg"
    }
  ],
  "materials": [
    {
      "doubleSided": true,
      "name": "Scottino.250Ktri.4Ktex_Material_u1_v1",
      "pbrMetallicRoughness": {
        "baseColorFactor": [
          1,
          1,
          1,
          1
        ],
        "baseColorTexture": {
          "index": 0,
          "texCoord": 0
        },
        "metallicFactor": 0,
        "roughnessFactor": 0.59999999999999998
      }
    }
  ],
  "meshes": [
    {
      "name": "default_0",
      "primitives": [
        {
          "attributes": {
            "NORMAL": 1,
            "POSITION": 0,
            "TANGENT": 2,
            "TEXCOORD_0": 3
          },
          "indices": 4,
          "material": 0,
          "mode": 4
        }
      ]
    },
    {
      "name": "default_0",
      "primitives": [
        {
          "attributes": {
            "NORMAL": 6,
            "POSITION": 5,
            "TANGENT": 7,
            "TEXCOORD_0": 8
          },
          "indices": 9,
          "material": 0,
          "mode": 4
        }
      ]
    },
    {
      "name": "default_0",
      "primitives": [
        {
          "attributes": {
            "NORMAL": 11,
            "POSITION": 10,
            "TANGENT": 12,
            "TEXCOORD_0": 13
          },
          "indices": 14,
          "material": 0,
          "mode": 4
        }
      ]
    }
  ],
  "nodes": [
    {
      "children": [
        1
      ],
      "name": "RootNode (gltf orientation matrix)",
      "rotation": [
        -0.70710678118654746,
        -0,
        -0,
        0.70710678118654757
      ]
    },
    {
      "children": [
        2
      ],
      "name": "RootNode (model correction matrix)"
    },
    {
      "children": [
        3,
        5,
        9
      ],
      "name": "Root"
    },
    {
      "children": [
        4
      ],
      "matrix": [
        -0.49712000000000006,
        0.72937000000000007,
        0.46999000000000002,
        0,
        -0.83398000000000005,
        -0.55114000000000007,
        -0.026810000000000004,
        0,
        0.23948000000000003,
        -0.40528999999999998,
        0.88226000000000004,
        0,
        2.4159699999999997,
        -2.7649900000000005,
        5.5187400000000002,
        1
      ],
      "name": "Lamp"
    },
    {
      "name": "Lamp"
    },
    {
      "children": [
        6,
        7,
        8
      ],
      "matrix": [
        0.10000000000000001,
        0,
        0,
        0,
        -0,
        0.10000000000000001,
        0,
        0,
        -0,
        -0,
        0.10000000000000001,
        0,
        0,
        0,
        0,
        1
      ],
      "name": "default"
    },
    {
      "mesh": 0,
      "name": "default_0"
    },
    {
      "mesh": 1,
      "name": "default_0"
    },
    {
      "mesh": 2,
      "name": "default_0"
    },
    {
      "children": [
        10
      ],
      "matrix": [
        1,
        0,
        0,
        0,
        0,
        1,
        0,
        0,
        0,
        0,
        1,
        0,
        -0.03781000000000001,
        -0.35661000000000004,
        2.8031300000000003,
        1
      ],
      "name": "Point"
    },
    {
      "name": "Point"
    }
  ],
  "samplers": [
    {
      "magFilter": 9729,
      "minFilter": 9987,
      "wrapS": 10497,
      "wrapT": 10497
    }
  ],
  "scene": 0,
  "scenes": [
    {
      "name": "OSG_Scene",
      "nodes": [
        0
      ]
    }
  ],
  "textures": [
    {
      "sampler": 0,
      "source": 0
    }
  ]
}

